<svg xmlns="http://www.w3.org/2000/svg" viewBox="0 0 34 216.6">
<g id="Laag_2" data-name="Laag 2">
<g id="Objects">
<path fill="#387db8" d="M32.4,110.9a299.4,299.4,0,0,1-10.1,54.7,272.3,272.3,0,0,1-9.1,26.3c-1.8,4.3-3.7,8.5-5.8,12.7-1,2.1-2.1,4.1-3.2,6.2s-1.1,2-1.7,3l-.9,1.5a3,3,0,0,1-1.2,1.3l-.4-.2a2.6,2.6,0,0,1,.5-1.8l.8-1.5c.6-1,1.2-2,1.7-3s2.2-4,3.2-6.1c2.1-4.2,4-8.4,5.8-12.6a238,238,0,0,0,9-26.2,312.7,312.7,0,0,0,10.3-54.4,330.6,330.6,0,0,0,.9-55.4c-1.4-18.2-4.3-36.5-9.7-54v.9a31.6,31.6,0,0,1-.4,8.7,27.4,27.4,0,0,1-2.6,8.4l-.6-.3a29.3,29.3,0,0,0,2.2-8.2,34.6,34.6,0,0,0,.3-8.5c0-.4-.1-.7-.1-1.1a2.5,2.5,0,0,1,.1-.8.9.9,0,0,1,.7-.5h.5a2.7,2.7,0,0,1,1,.8l.8.8C25.3,2.9,26.2,4,27,5.2s3.2,4.8,4.8,7.3l-.6.4c-1.6-2.4-3.2-4.8-4.9-7.1L23.6,2.4,23,1.8a193.8,193.8,0,0,1,6.5,26c1.7,9.1,2.8,18.3,3.6,27.6A321.4,321.4,0,0,1,32.4,110.9Z"/></g></g></svg>