<?xml version="1.0" encoding="utf-8"?>
<!-- Generator: Adobe Illustrator 24.3.0, SVG Export Plug-In . SVG Version: 6.00 Build 0)  -->
<svg version="1.1" id="Capa_1" xmlns="http://www.w3.org/2000/svg" xmlns:xlink="http://www.w3.org/1999/xlink" x="0px" y="0px"
	 viewBox="0 0 512 512" style="enable-background:new 0 0 512 512;" xml:space="preserve">
<g>
	<path d="M407.5,363l-64-27.4c0,0-0.1,0-0.1,0l-27.8-11.9c0-0.4,0-0.9,0-1.3v-36.8c18.8-16.6,30.7-40.8,30.7-67.8v-6.2h8.8
		c11,0,20-9,20-20v-24.8c0-8.7-5.6-16.1-13.4-18.9v-47.6c0-27.9-21-53.3-42.7-68.1c-10.2-6.8-18.7-16-24.6-26.7
		c-1.1-1.9-2.9-3.3-5.1-3.7C283.3,0.6,277.1,0,271,0c-39.5,0-73.2,25.2-85.9,60.4l-6,2.2c-17.3,6.4-28.8,23-28.8,41.4V148
		c-7.8,2.7-13.4,10.2-13.4,18.9v24.8c0,11,9,20,20,20h8.7v6.2c0,27,11.9,51.2,30.7,67.8v36.7c0,0.5,0,1.1,0.1,1.6l-90.7,39.4
		c-28.1,11.8-46.2,39.1-46.2,69.6v71.5c0,4.1,3.4,7.5,7.5,7.5s7.5-3.4,7.5-7.5V433c0-24.4,14.5-46.3,37.1-55.8l55.3-24
		c3.3,8.6,7.8,16.7,13.5,24c1.5,1.9,3.7,2.9,5.9,2.9c1.6,0,3.2-0.5,4.6-1.6c3.3-2.5,3.9-7.2,1.4-10.5c-4.9-6.4-8.8-13.4-11.6-20.9
		l18.2-7.9c7.4,24.9,30.4,42.7,57.2,42.7c26.9,0,50.1-17.9,57.3-43l18.2,7.8c-11.5,31.3-41.7,52.7-75.5,52.7
		c-14.8,0-29.2-4-41.8-11.7c-3.5-2.2-8.2-1-10.3,2.5c-2.2,3.5-1,8.2,2.5,10.3c14.9,9.1,32.1,13.9,49.6,13.9
		c39.9,0,75.5-25,89.3-61.8l56.2,24.1c21.9,9.7,36,31.4,36,55.3v72.4c0,4.1,3.4,7.5,7.5,7.5s7.5-3.4,7.5-7.5v-72.4
		C452.5,402.3,434.9,375.2,407.5,363L407.5,363z M360.1,191.6c0,2.8-2.3,5-5,5h-8.7v-34.8h8.7c2.8,0,5,2.3,5,5V191.6z M156.9,196.7
		c-2.8,0-5-2.3-5-5v-24.8c0-2.8,2.3-5,5-5h8.7v34.8L156.9,196.7L156.9,196.7z M180.6,217.8v-13.3c0-0.1,0-0.2,0-0.3v-49.8
		c0,0,0-0.1,0-0.1c0.2-4.5,1.3-12.8,7.3-19.9c6-7.1,13.7-9.4,16.2-10.1c10-2.9,16.3,0,25,4c8.6,3.9,18.3,8.4,32.8,7.7
		c13-0.6,21.7-5.2,28.6-8.9c7.3-3.8,11.6-6.1,19-3.9c4,1.2,8.1-1.1,9.3-5c1.2-4-1.1-8.1-5-9.3c-13.2-3.9-22.2,0.8-30.2,5
		c-6.2,3.3-12.7,6.7-22.4,7.1c-10.8,0.5-18.1-2.8-25.8-6.3c-9.4-4.3-20.1-9.2-35.4-4.8c-9.7,2.8-17.6,7.8-23.5,14.8
		c-6.3,7.5-9,15.7-10.1,22.2h-1.1v-42.7c0-10.8,6-20.7,15.4-25.7c-0.6,4.2-0.9,8.5-0.9,12.8c0,4.1,3.4,7.5,7.5,7.5s7.5-3.4,7.5-7.5
		c0-42,34.2-76.2,76.2-76.2c4,0,8.1,0.3,12.1,1c7,11.5,16.4,21.4,27.6,28.8c19.5,13.3,33.3,32.1,36.1,56.1v46H346
		c-0.6-5-2.1-10.7-5.3-16.5c-2-3.6-6.6-4.9-10.2-2.9c-3.6,2-4.9,6.6-2.9,10.2c3.4,6.1,3.9,12.3,3.8,16.4c0,0.1,0,0.2,0,0.3v63.5
		c0,41.5-33.8,75.3-75.3,75.3C214.4,293.2,180.6,259.4,180.6,217.8L180.6,217.8z M256,367c-22.5,0-41.6-16.8-44.3-39.2
		c-0.2-1.8-0.3-3.6-0.3-5.5v-26c13.2,7.5,28.4,11.8,44.6,11.8c16.2,0,31.5-4.3,44.7-11.8v26c0,1.8-0.1,3.5-0.3,5.2
		C297.7,350.1,278.7,367,256,367z" fill="#337ab7"/>
	<path d="M142.3,448.6c-4.1,0-7.5,3.4-7.5,7.5v48.4c0,4.1,3.4,7.5,7.5,7.5s7.5-3.4,7.5-7.5v-48.4C149.8,452,146.5,448.6,142.3,448.6
		z" fill="#337ab7"/>
	<path d="M369.9,448.6c-4.1,0-7.5,3.4-7.5,7.5v48.4c0,4.1,3.4,7.5,7.5,7.5s7.5-3.4,7.5-7.5v-48.4C377.4,452,374,448.6,369.9,448.6z"
		 fill="#337ab7"/>
</g>
</svg>
