<svg xmlns="http://www.w3.org/2000/svg" width="195.537" height="136.876" viewBox="0 0 195.537 136.876">
  <path fill="#0b233f" id="Icon_awesome-hands" data-name="Icon awesome-hands" d="M62.572,55.34A9.777,9.777,0,0,0,46.929,67.072L58.57,82.593a4.884,4.884,0,0,1-.458,6.386L54.2,92.889a4.858,4.858,0,0,1-7.21-.336L19.554,59.617V14.277A9.777,9.777,0,0,0,0,14.277V81A14.681,14.681,0,0,0,3.208,90.17L35.013,131.2a18.236,18.236,0,0,1,3.177,6.63,4.787,4.787,0,0,0,4.675,3.544H83.1a4.9,4.9,0,0,0,4.888-4.888V102.269A39.168,39.168,0,0,0,80.17,78.8L62.572,55.34ZM185.76,4.5a9.766,9.766,0,0,0-9.777,9.777v45.34L148.547,92.553a4.907,4.907,0,0,1-7.21.336l-3.911-3.911a4.884,4.884,0,0,1-.458-6.386l11.641-15.521A9.777,9.777,0,0,0,132.965,55.34L115.367,78.8a39.168,39.168,0,0,0-7.821,23.464v34.219a4.9,4.9,0,0,0,4.888,4.888h40.238a4.814,4.814,0,0,0,4.675-3.544,18.236,18.236,0,0,1,3.177-6.63L192.329,90.17A14.681,14.681,0,0,0,195.537,81V14.277A9.766,9.766,0,0,0,185.76,4.5Z" transform="translate(0 -4.5)"/>
</svg>
