<svg xmlns="http://www.w3.org/2000/svg" width="331.047" height="289.666" viewBox="0 0 331.047 289.666">
  <path fill="#1f497d" id="Icon_awesome-wallet" data-name="Icon awesome-wallet" d="M298.2,64.321H51.726a10.345,10.345,0,0,1,0-20.69H300.012a10.342,10.342,0,0,0,10.345-10.345A31.035,31.035,0,0,0,279.321,2.25H41.381A41.378,41.378,0,0,0,0,43.631v206.9a41.378,41.378,0,0,0,41.381,41.381H298.2c18.117,0,32.846-13.921,32.846-31.036V95.357C331.047,78.242,316.318,64.321,298.2,64.321ZM268.976,198.809a20.69,20.69,0,1,1,20.69-20.69A20.693,20.693,0,0,1,268.976,198.809Z" transform="translate(0 -2.25)"/>
</svg>
