<svg xmlns="http://www.w3.org/2000/svg" width="30.8" height="30.8"><rect id="backgroundrect" width="100%" height="100%" x="0" y="0" fill="none" stroke="none"/><g class="currentLayer" style=""><title>Layer 1</title><g id="Laag_2" data-name="Laag 2" class="" stroke-opacity="1" stroke="#337ab7" fill-opacity="1" fill="#337ab7" opacity="1" filter=""><g id="Laag_1-2" data-name="Laag 1" stroke="#337ab7" fill="#337ab7" opacity="1" filter=""><path id="Icon_metro-info" data-name="Icon metro-info" d="M13.5,9.2a1.5,1.5,0,0,1,1.4-1.5h1a1.6,1.6,0,0,1,1.5,1.5v.9a1.5,1.5,0,0,1-1.5,1.5h-1a1.5,1.5,0,0,1-1.4-1.5Zm5.8,13.9H11.6V21.2h1.9V15.4H11.6V13.5h5.8v7.7h1.9ZM15.4,0A15.4,15.4,0,1,0,30.8,15.4h0A15.4,15.4,0,0,0,15.4,0Zm0,28A12.6,12.6,0,1,1,28,15.4,12.7,12.7,0,0,1,15.4,28Z" stroke="#337ab7" fill="#337ab7" opacity="1" filter=""/></g></g></g><defs><filter id="f114" xmlns:inkscape="http://www.inkscape.org/namespaces/inkscape" inkscape:label="Noise transparency" inkscape:menu="ABCs" inkscape:menu-tooltip="Basic noise transparency texture" color-interpolation-filters="sRGB">
            <feTurbulence type="fractalNoise" numOctaves="5" baseFrequency=".02" result="result1"/>
            <feComposite operator="in" in2="result1" result="result2" in="SourceGraphic"/>
            <feColorMatrix result="result3" values="1 0 0 0 0 0 1 0 0 0 0 0 1 0 0 0 0 0 3 -1 " in="result2"/>
        </filter></defs></svg>