<svg xmlns="http://www.w3.org/2000/svg" width="463.271" height="278.064" viewBox="0 0 463.271 278.064">
  <path fill="#0b233f" id="Icon_awesome-handshake" data-name="Icon awesome-handshake" d="M314.662,4.5h-62.18a23.154,23.154,0,0,0-15.635,6.08L165.692,75.728c-.072.072-.145.217-.217.29a28.794,28.794,0,0,0-1.52,40.536c9.193,10.062,28.52,12.74,40.609,1.954.072-.072.217-.072.29-.145l57.837-52.987A11.579,11.579,0,1,1,278.325,82.46l-18.893,17.3,105.394,85.56a52.153,52.153,0,0,1,5.719,5.574V50.827L331.022,11.3a23,23,0,0,0-16.359-6.8ZM393.78,50.972V213.044a23.139,23.139,0,0,0,23.164,23.164h46.327V50.972Zm34.745,162.072a11.582,11.582,0,1,1,11.582-11.582A11.616,11.616,0,0,1,428.526,213.044ZM0,236.136H46.327a23.139,23.139,0,0,0,23.164-23.164v-162H0Zm34.745-46.255a11.582,11.582,0,1,1-11.582,11.582A11.616,11.616,0,0,1,34.745,189.881Zm315.531,13.464L242.2,115.613l-21.716,19.906a52.1,52.1,0,1,1-70.432-76.8L209.268,4.5h-60.66a23.122,23.122,0,0,0-16.359,6.8l-39.6,39.523V212.9H105.9l65.509,59.284a46.318,46.318,0,0,0,65.147-6.732l.145-.145,12.957,11.22a26.9,26.9,0,0,0,37.858-3.909l22.729-27.941,3.909,3.185a23.127,23.127,0,0,0,32.574-3.4l6.877-8.469a23.205,23.205,0,0,0-3.33-32.646Z" transform="translate(0 -4.5)"/>
</svg>
