<svg xmlns="http://www.w3.org/2000/svg" width="167.389" height="239.127" viewBox="0 0 167.389 239.127">
  <path fill="#0b233f" id="Icon_material-lightbulb-outline" data-name="Icon material-lightbulb-outline" d="M55.325,230.171a11.992,11.992,0,0,0,11.956,11.956h47.825a11.991,11.991,0,0,0,11.956-11.956V218.215H55.325ZM91.195,3A83.659,83.659,0,0,0,43.369,155.324v27.021A11.992,11.992,0,0,0,55.325,194.3h71.738a11.992,11.992,0,0,0,11.956-11.956V155.324A83.659,83.659,0,0,0,91.195,3ZM125.27,135.716l-10.163,7.174v27.5H67.282v-27.5l-10.163-7.174a59.782,59.782,0,1,1,68.151,0Z" transform="translate(-7.5 -3)"/>
</svg>
