<svg xmlns="http://www.w3.org/2000/svg" width="275.524" height="175.333" viewBox="0 0 275.524 175.333">
  <path fill="#1f497d" id="Icon_material-people" data-name="Icon material-people" d="M189.357,82.643a37.571,37.571,0,1,0-37.571-37.571A37.415,37.415,0,0,0,189.357,82.643Zm-100.191,0A37.571,37.571,0,1,0,51.6,45.071,37.415,37.415,0,0,0,89.167,82.643Zm0,25.048c-29.181,0-87.667,14.653-87.667,43.833v31.31H176.833v-31.31C176.833,122.343,118.347,107.691,89.167,107.691Zm100.191,0c-3.632,0-7.765.25-12.148.626,14.528,10.52,24.672,24.672,24.672,43.207v31.31h75.143v-31.31C277.024,122.343,218.538,107.691,189.357,107.691Z" transform="translate(-1.5 -7.5)"/>
</svg>
