<svg xmlns="http://www.w3.org/2000/svg" viewBox="0 0 577.9 153.5"><defs><style>.cls-1{fill:#3c2f88;}.cls-2{fill:#f07d1a;}</style></defs><g id="Laag_2" data-name="Laag 2"><g id="Laag_1-2" data-name="Laag 1"><path class="cls-1" d="M79.4,0h-.1c-4.6.3-9.2.8-13.5,1.5s-8,1.6-11.7,2.6l-.5,2.3-20.8,92h0l-4.1,18.1L58.2,108h0l2.9-17.9L92.9,81l7.3,14.6,30.2-8.8ZM69.6,28.8,83.8,61.5,64.7,66.9Z"/><path class="cls-2" d="M16.3,107.6h-.1L33.6,30.4C13.2,40.6,0,56.7,0,74.9c0,12.2,6,23.5,16.2,32.7h.1Z"/><path class="cls-2" d="M90.7,19.3l39.7,67.5L119,90.1l8.5,14.5-30.2,8.9L90,98.8,58.2,108l-3.1,19.1a122.7,122.7,0,0,0,29.7,3.5c46.8,0,84.8-25,84.8-55.7S134.8,21.3,90.7,19.3Z"/><path class="cls-1" d="M234,135.5H198.6l-6.3,15.8H169.7l34-77.1h25.2l33.9,77.1H240.3ZM216.3,90.9l-12.1,30.5h24.2Z"/><path class="cls-1" d="M341.2,74.2h20.4v77.1H338.8L296.7,97.6h-.2v53.7H276.2V74.2h24.3L341,128h.2Z"/><path class="cls-1" d="M383.8,74.2h57.9c11.2,0,21.7,5.2,21.7,19.5,0,5.9-3,13.1-10.3,15.4v.2c9,1.5,13.8,10.4,13.8,18.7,0,10.3-4.8,23.3-28.1,23.3h-55Zm20.9,30.7h29.2c4.9,0,7.9-2.6,7.9-8.3s-2.2-8.3-10.8-8.3H404.7Zm0,31.8h30.9c6.5,0,9-4.3,9-9.1s-3.8-9.3-11.1-9.3H404.7Z"/><path class="cls-1" d="M529.9,72.1c41.5,0,48,24.6,48,40.7s-6.5,40.7-48,40.7S482,128.9,482,112.8,488.4,72.1,529.9,72.1Zm0,66.7c19,0,25.7-14,25.7-26s-6.7-26-25.7-26-25.7,14-25.7,26S510.9,138.8,529.9,138.8Z"/></g></g></svg>