<?xml version="1.0" encoding="utf-8"?>
<!-- Generator: Adobe Illustrator 22.1.0, SVG Export Plug-In . SVG Version: 6.00 Build 0)  -->
<svg version="1.1" id="Layer_1" xmlns="http://www.w3.org/2000/svg" xmlns:xlink="http://www.w3.org/1999/xlink" x="0px" y="0px"
	 viewBox="0 0 448 280" style="enable-background:new 0 0 448 280;" xml:space="preserve">
<style type="text/css">
	.st0{fill:#008dcf;}
</style>
<g>
	<path class="st0" d="M56,144c0-4.4,3.6-8,8-8h20c6.6,0,12,5.4,12,12s-5.4,12-12,12H64c-4.4,0-8-3.6-8-8V144z M72,184
		c0-4.4,3.6-8,8-8h20c6.6,0,12,5.4,12,12s-5.4,12-12,12H80c-4.4,0-8-3.6-8-8V184z M88,224c0-4.4,3.6-8,8-8h20c6.6,0,12,5.4,12,12
		s-5.4,12-12,12H96c-4.4,0-8-3.6-8-8V224z M132,280h-20c-4.4,0-8-3.6-8-8v-8c0-4.4,3.6-8,8-8h20c6.6,0,12,5.4,12,12
		S138.6,280,132,280z M312,264h-11.7l-29.6-44.4l-13.3,8.9l23.7,35.6h-28.8l-29.6-44.4l-13.3,8.9l23.7,35.6h-28.8l-29.6-44.4
		l-13.3,8.9l23.7,35.6h-16.6c-3.2-0.1-6.3-0.8-9.2-2.1c-2.2-9.7-9.4-17.5-18.9-20.5c4.1-7.3,4.7-16.1,1.6-23.8
		c-3.1-7.8-9.6-13.7-17.6-16.2c4.1-7.3,4.7-16.1,1.6-23.8c-3.1-7.8-9.6-13.7-17.6-16.2c2.3-4.1,3.6-8.7,3.6-13.4
		c0-15.5-12.5-28-28-28H64c-3.2,0-6.4,0.6-9.3,1.9L38.5,99.3C37,97.2,34.6,96,32,96H0V0h109.3l62.3,48.4C155.8,50.6,144,64.1,144,80
		c0,17.7,14.3,32,32,32h75.3l77.5,139.5C326.5,258.9,319.7,264,312,264z M448,240H340.7l-22.2-40H360v-16h-50.4L263,100.1
		c-1.4-2.5-4.1-4.1-7-4.1h-80c-8.8,0-16-7.2-16-16s7.2-16,16-16h85.6l118,78.7c1.3,0.9,2.8,1.3,4.4,1.3h64V240z"/>
</g>
</svg>
