<?xml version="1.0" encoding="utf-8"?>
<!-- Generator: Adobe Illustrator 22.1.0, SVG Export Plug-In . SVG Version: 6.00 Build 0)  -->
<svg version="1.1" id="Capa_1" xmlns="http://www.w3.org/2000/svg" xmlns:xlink="http://www.w3.org/1999/xlink" x="0px" y="0px"
	 viewBox="0 0 25 28.6" style="enable-background:new 0 0 25 28.6;" xml:space="preserve">
<style type="text/css">
	.st0{fill:#ed7d18;}
</style>
<g>
	<path class="st0" d="M12.5,0C5.6,0,0,5.6,0,12.5c0,4.7,2.6,8.8,6.5,11l-0.1,5.2l5.9-3.6c0.1,0,0.2,0,0.3,0C19.4,25,25,19.4,25,12.5
		S19.4,0,12.5,0z M11.9,20c-1.1,0-1.9-0.8-1.9-1.9s0.8-1.9,1.9-1.9s1.9,0.8,1.9,1.9C13.8,19.2,13.1,20,11.9,20z M14.5,12.2
		c-0.8,0.9-1.1,1.7-1.1,2.6v0.4h-2.8v-0.5c-0.1-1.1,0.3-2.2,1.2-3.3c0.7-0.8,1.2-1.5,1.2-2.2S12.5,8,11.5,7.9
		c-0.7,0-1.5,0.3-2.1,0.6L8.7,6.2c0.8-0.4,2-0.9,3.5-0.9c2.8,0,4,1.5,4,3.3C16.3,10.2,15.3,11.3,14.5,12.2z"/>
</g>
</svg>
