<svg xmlns="http://www.w3.org/2000/svg" viewBox="0 0 590.3 311.2"><g id="Laag_2" data-name="Laag 2"><g id="Capa_1" data-name="Capa 1"><path fill="#6393c6" d="M590.3,267.1V43.8A43.9,43.9,0,0,0,546.5,0H197.9a43.6,43.6,0,0,0-31,12.9,44.2,44.2,0,0,0-12.9,31v56H92.6a9.8,9.8,0,0,0-7.1,3,10.5,10.5,0,0,0-3,7.1,10,10,0,0,0,10,10h61.6v25.6H10.1a9.8,9.8,0,0,0-7.1,3,10.2,10.2,0,0,0-3,7.1,10,10,0,0,0,10,10H154V267.4a43.9,43.9,0,0,0,43.8,43.8H546.3a43.6,43.6,0,0,0,31-12.9A44.1,44.1,0,0,0,590.3,267.1ZM176.8,278a23.4,23.4,0,0,1-2.7-10.9V43.8a23.7,23.7,0,0,1,12-20.6L308.8,146ZM297.4,106.3h42a10,10,0,0,0,0-20h-62L256.8,65.6H384.6a10,10,0,1,0,0-20H236.7L211.1,20H533.3L389.1,164.2a23.8,23.8,0,0,1-33.7,0l-58-57.9ZM546.4,291H197.9a21.8,21.8,0,0,1-5.2-.6L322.9,160.2l18.2,18.2a43.8,43.8,0,0,0,61.9,0l18.2-18.2,81,81H420.3a9.8,9.8,0,0,0-7.1,3,10.5,10.5,0,0,0-3,7.1,10,10,0,0,0,10,10H522l29.2,29.2A21.4,21.4,0,0,1,546.4,291ZM435.5,146,558.4,23.2a24,24,0,0,1,12,20.6V267.2a24.7,24.7,0,0,1-2.6,11ZM130,201.1a10,10,0,0,0-10-10H55.8a9.8,9.8,0,0,0-7.1,3,10.5,10.5,0,0,0-3,7.1,10,10,0,0,0,10,10h64.2A10.2,10.2,0,0,0,130,201.1Z"/></g></g></svg>