<?xml version="1.0" encoding="utf-8"?>
<!-- Generator: Adobe Illustrator 22.1.0, SVG Export Plug-In . SVG Version: 6.00 Build 0)  -->
<svg version="1.1" id="Layer_1" xmlns="http://www.w3.org/2000/svg" xmlns:xlink="http://www.w3.org/1999/xlink" x="0px" y="0px"
	 viewBox="0 0 434.5 438" style="enable-background:new 0 0 434.5 438;" xml:space="preserve">
<style type="text/css">
	.st0{fill:#ed7d18;}
</style>
<title>value customers users viewer</title>
<g>
	<path class="st0" d="M402.9,271.8l-66.1,35.7l-6.3,3.3c0.1,1,0.1,1.9,0.1,2.9c0,3.3-2.7,6-6,6c-0.1,0-0.2,0-0.3,0l-45.7-2.1
		c-13.4-0.6-26.8,0-40,1.8c-3.3,0.5-6.3-1.8-6.8-5s1.8-6.3,5-6.8c0,0,0.1,0,0.1,0c14-1.9,28.1-2.6,42.2-1.9l38.8,1.8
		c-3-15.9-17-27.5-33.2-27.5h-53.5c-10.5,0-20.9-2.4-30.3-6.9l-5.5-2.7c-27.9-13.6-61.1-10.4-85.9,8.3l-13.1,11.7
		c-6.3,5.6-13.8,9.8-21.9,12.3l26.3,86.3l36.9-23.3c0.1-0.1,0.2-0.1,0.3-0.2c7.9-4.5,17.3-5.7,26.1-3.5l80.3,14.8
		c19.2,3.4,39,0.7,56.5-7.8l133.7-91.8C426.3,268.2,413.4,266.1,402.9,271.8z"/>
	<path class="st0" d="M331.1,296.9l52.8-28.5c-5.9-5.6-15.1-8.6-22.4-5l-40.7,21.9c3.1,3.9,5.6,8.4,7.2,13.1L331.1,296.9z"/>
	<path class="st0" d="M58,420.1c3.8,0,6.9-3.1,6.9-6.9s-3.1-6.9-6.9-6.9c-3.8,0-6.9,3.1-6.9,6.9C51.1,417,54.2,420.1,58,420.1z"/>
	<path class="st0" d="M307.5,261.9c0,0-0.1,0.1-0.1,0.1l-12.8,7c6.2,1.4,12,4,17.1,7.7l26.8-14.5C329,256.4,317.2,256.3,307.5,261.9
		z"/>
	<path class="st0" d="M0,273.9L20,438h83.3L53.2,273.9H0z M76.9,413.2c0,10.4-8.5,18.9-18.9,18.9s-18.9-8.5-18.9-18.9
		c0-10.4,8.5-18.9,18.9-18.9c0,0,0,0,0,0C68.4,394.3,76.9,402.8,76.9,413.2z"/>
	<path class="st0" d="M218.2,86.9c18.5,0,33.5-15,33.5-33.5V33.5c0-18.5-15-33.5-33.5-33.5s-33.5,15-33.5,33.5v19.8
		C184.7,71.8,199.7,86.8,218.2,86.9z"/>
	<path class="st0" d="M333.9,99.8c15.8,0,28.6-12.8,28.6-28.6V53.9c0-15.8-12.8-28.6-28.6-28.6s-28.6,12.8-28.6,28.6c0,0,0,0,0,0
		v17.3C305.3,87,318.1,99.8,333.9,99.8z"/>
	<path class="st0" d="M102.4,99.8c15.8,0,28.6-12.8,28.6-28.6V53.9c-0.1-15.8-13-28.5-28.8-28.4c-15.7,0.1-28.4,12.8-28.4,28.4v17.3
		C73.8,87,86.6,99.8,102.4,99.8z"/>
	<path class="st0" d="M392.1,157.7c0-16.3-11.9-30.2-28.1-32.6c-14.5,16.3-39.5,17.8-55.8,3.2c-1.2-1.1-2.3-2.2-3.4-3.4
		c-4.5,0.5-8.9,1.9-12.8,4.2c3.7,7.1,5.6,15,5.5,23v38.5h94.5L392.1,157.7z"/>
	<path class="st0" d="M150.8,152.2v58.3h134.8v-58.3c0-19.2-14.2-35.5-33.3-38.1c-16.1,18.4-44.1,20.4-62.5,4.3
		c-1.6-1.4-3-2.9-4.4-4.4C165.8,116,150.9,132.5,150.8,152.2z"/>
	<path class="st0" d="M44.1,157.7v32.9h94.7v-38.5c0-8,1.9-15.8,5.5-22.9c-3.6-2.1-7.6-3.5-11.7-4.1c-14.5,16.3-39.5,17.8-55.8,3.2
		c-1.2-1.1-2.3-2.2-3.4-3.4C56.8,127,44.2,141,44.1,157.7z"/>
</g>
</svg>
