<svg width="25" height="25" viewBox="0 0 25 25" fill="none" xmlns="http://www.w3.org/2000/svg">
<path d="M13.7725 2.0285C13.5154 2.00952 13.2578 2.00001 13 2V0.5C13.2948 0.500144 13.5895 0.511151 13.8835 0.533L13.7725 2.0285ZM16.7785 2.7035C16.2977 2.51796 15.8038 2.36805 15.301 2.255L15.6295 0.791C16.204 0.92 16.7695 1.091 17.3185 1.304L16.7785 2.7035ZM18.8335 3.7685C18.619 3.62547 18.3994 3.49038 18.175 3.3635L18.9145 2.0585C19.4274 2.3491 19.9182 2.67699 20.383 3.0395L19.4605 4.223C19.2571 4.06435 19.048 3.91324 18.8335 3.77V3.7685ZM21.5845 6.4535C21.2878 6.03196 20.9604 5.63288 20.605 5.2595L21.691 4.2245C22.096 4.652 22.471 5.1095 22.8115 5.5895L21.5845 6.4535ZM22.7005 8.4815C22.602 8.24369 22.495 8.00953 22.3795 7.7795L23.719 7.1045C23.9839 7.63113 24.2095 8.17661 24.394 8.7365L22.969 9.206C22.8884 8.9613 22.7988 8.71964 22.7005 8.4815ZM23.4955 12.242C23.4834 11.7265 23.4332 11.2126 23.3455 10.7045L24.823 10.4495C24.9235 11.0285 24.982 11.6165 24.997 12.2045L23.497 12.242H23.4955ZM23.299 14.549C23.3485 14.294 23.389 14.0405 23.4205 13.784L24.91 13.9685C24.838 14.5537 24.7226 15.1328 24.565 15.701L23.119 15.3005C23.188 15.053 23.248 14.8025 23.299 14.549ZM21.871 18.1175C22.147 17.6825 22.39 17.2265 22.6 16.7555L23.971 17.363C23.731 17.903 23.4535 18.422 23.1385 18.92L21.871 18.1175ZM20.425 19.925C20.608 19.742 20.7835 19.553 20.95 19.358L22.087 20.3375C21.8945 20.5608 21.6938 20.7769 21.4855 20.9855L20.425 19.925Z" fill="#0B233F"/>
<path d="M13 2C11.2734 2.00012 9.57336 2.42607 8.05061 3.24011C6.52786 4.05415 5.22937 5.23115 4.27013 6.66687C3.3109 8.1026 2.72054 9.75272 2.55134 11.4711C2.38214 13.1895 2.63932 14.923 3.30011 16.5183C3.9609 18.1135 5.0049 19.5212 6.33964 20.6166C7.67437 21.712 9.25865 22.4613 10.9521 22.7982C12.6456 23.1351 14.3961 23.0492 16.0484 22.548C17.7008 22.0468 19.204 21.1459 20.425 19.925L21.4855 20.9855C20.0901 22.3817 18.3719 23.4121 16.4831 23.9855C14.5943 24.5589 12.5932 24.6575 10.6571 24.2727C8.72108 23.8879 6.90983 23.0315 5.38387 21.7793C3.85791 20.5272 2.66435 18.918 1.90895 17.0943C1.15355 15.2707 0.859627 13.2888 1.05323 11.3244C1.24683 9.35999 1.92198 7.47365 3.01885 5.83253C4.11572 4.1914 5.60045 2.84617 7.34149 1.916C9.08252 0.985843 11.0261 0.499477 13 0.5V2Z" fill="#0B233F"/>
<path d="M12.25 5C12.4489 5 12.6397 5.07902 12.7803 5.21967C12.921 5.36032 13 5.55109 13 5.75V13.565L17.872 16.349C18.0397 16.4502 18.1612 16.6129 18.2104 16.8024C18.2597 16.992 18.2329 17.1933 18.1358 17.3633C18.0386 17.5333 17.8788 17.6586 17.6905 17.7124C17.5022 17.7661 17.3003 17.7441 17.128 17.651L11.878 14.651C11.7632 14.5854 11.6678 14.4907 11.6014 14.3764C11.535 14.262 11.5 14.1322 11.5 14V5.75C11.5 5.55109 11.579 5.36032 11.7197 5.21967C11.8603 5.07902 12.0511 5 12.25 5Z" fill="#0B233F"/>
</svg>
