<svg width="24" height="25" viewBox="0 0 24 25" fill="none" xmlns="http://www.w3.org/2000/svg">
<path d="M0 6.5C0 5.70435 0.316071 4.94129 0.87868 4.37868C1.44129 3.81607 2.20435 3.5 3 3.5H21C21.7956 3.5 22.5587 3.81607 23.1213 4.37868C23.6839 4.94129 24 5.70435 24 6.5V18.5C24 19.2956 23.6839 20.0587 23.1213 20.6213C22.5587 21.1839 21.7956 21.5 21 21.5H3C2.20435 21.5 1.44129 21.1839 0.87868 20.6213C0.316071 20.0587 0 19.2956 0 18.5V6.5ZM3 5C2.60218 5 2.22064 5.15804 1.93934 5.43934C1.65804 5.72064 1.5 6.10218 1.5 6.5V6.8255L12 13.1255L22.5 6.8255V6.5C22.5 6.10218 22.342 5.72064 22.0607 5.43934C21.7794 5.15804 21.3978 5 21 5H3ZM22.5 8.5745L15.438 12.812L22.5 17.1575V8.5745ZM22.449 18.8885L13.989 13.682L12 14.8745L10.011 13.682L1.551 18.887C1.63624 19.2062 1.82447 19.4883 2.08648 19.6896C2.34849 19.8908 2.66962 20 3 20H21C21.3302 20 21.6512 19.8911 21.9131 19.6902C22.1751 19.4892 22.3635 19.2074 22.449 18.8885ZM1.5 17.1575L8.562 12.812L1.5 8.5745V17.1575Z" fill="#0B233F"/>
</svg>
