<svg width="24" height="25" viewBox="0 0 24 25" fill="none" xmlns="http://www.w3.org/2000/svg">
<path d="M5.48122 2.49214C5.39267 2.37823 5.28089 2.28447 5.15332 2.21707C5.02575 2.14968 4.8853 2.11021 4.7413 2.10127C4.59729 2.09233 4.45304 2.11414 4.31811 2.16523C4.18319 2.21633 4.06067 2.29555 3.95872 2.39764L2.40772 3.95014C1.68322 4.67614 1.41622 5.70364 1.73272 6.60514C3.04633 10.3365 5.18316 13.7243 7.98472 16.5171C10.7776 19.3187 14.1654 21.4555 17.8967 22.7691C18.7982 23.0856 19.8257 22.8186 20.5517 22.0941L22.1027 20.5431C22.2048 20.4412 22.284 20.3187 22.3351 20.1837C22.3862 20.0488 22.408 19.9046 22.3991 19.7606C22.3901 19.6166 22.3507 19.4761 22.2833 19.3485C22.2159 19.221 22.1221 19.1092 22.0082 19.0206L18.5477 16.3296C18.426 16.2353 18.2845 16.1697 18.1338 16.138C17.9831 16.1063 17.8271 16.1093 17.6777 16.1466L14.3927 16.9671C13.9542 17.0767 13.4949 17.0709 13.0593 16.9503C12.6237 16.8296 12.2268 16.5982 11.9072 16.2786L8.22322 12.5931C7.90337 12.2737 7.67171 11.8769 7.55079 11.4413C7.42987 11.0057 7.42381 10.5462 7.53322 10.1076L8.35522 6.82264C8.39258 6.67323 8.39552 6.51729 8.36382 6.36658C8.33212 6.21587 8.2666 6.07433 8.17222 5.95264L5.48122 2.49214ZM2.82622 1.26664C3.08871 1.00406 3.40406 0.800333 3.75133 0.668979C4.09859 0.537625 4.46983 0.481652 4.84039 0.504777C5.21095 0.527901 5.57235 0.629594 5.90059 0.803102C6.22883 0.976611 6.51641 1.21796 6.74422 1.51114L9.43522 4.97014C9.92872 5.60464 10.1027 6.43114 9.90772 7.21114L9.08722 10.4961C9.0448 10.6663 9.04709 10.8445 9.09387 11.0135C9.14065 11.1825 9.23034 11.3365 9.35422 11.4606L13.0397 15.1461C13.164 15.2703 13.3183 15.3601 13.4875 15.4069C13.6568 15.4537 13.8354 15.4558 14.0057 15.4131L17.2892 14.5926C17.6741 14.4964 18.0759 14.4889 18.4641 14.5708C18.8524 14.6526 19.2169 14.8217 19.5302 15.0651L22.9892 17.7561C24.2327 18.7236 24.3467 20.5611 23.2337 21.6726L21.6827 23.2236C20.5727 24.3336 18.9137 24.8211 17.3672 24.2766C13.409 22.8839 9.81513 20.6179 6.85222 17.6466C3.88115 14.6842 1.61513 11.0908 0.222218 7.13314C-0.320782 5.58814 0.166718 3.92764 1.27672 2.81764L2.82772 1.26664H2.82622Z" fill="#0B233F"/>
</svg>
