<svg width="22" height="40" viewBox="0 0 22 40" fill="none" xmlns="http://www.w3.org/2000/svg">
<path fill-rule="evenodd" clip-rule="evenodd" d="M0.938003 0.937996C1.07734 0.798306 1.24287 0.687478 1.4251 0.611858C1.60734 0.536239 1.8027 0.497314 2 0.497314C2.1973 0.497314 2.39267 0.536239 2.5749 0.611858C2.75714 0.687478 2.92267 0.798306 3.062 0.937996L21.062 18.938C21.2017 19.0773 21.3125 19.2429 21.3881 19.4251C21.4638 19.6073 21.5027 19.8027 21.5027 20C21.5027 20.1973 21.4638 20.3927 21.3881 20.5749C21.3125 20.7571 21.2017 20.9227 21.062 21.062L3.062 39.062C2.78034 39.3437 2.39833 39.5019 2 39.5019C1.60168 39.5019 1.21966 39.3437 0.938003 39.062C0.656343 38.7803 0.498107 38.3983 0.498107 38C0.498107 37.6017 0.656343 37.2197 0.938003 36.938L17.879 20L0.938003 3.062C0.798313 2.92266 0.687484 2.75713 0.611865 2.5749C0.536245 2.39266 0.497322 2.1973 0.497322 2C0.497322 1.80269 0.536245 1.60733 0.611865 1.4251C0.687484 1.24286 0.798313 1.07733 0.938003 0.937996Z" fill="#0052A9"/>
</svg>
