<svg width="22" height="40" viewBox="0 0 22 40" fill="none" xmlns="http://www.w3.org/2000/svg">
<path fill-rule="evenodd" clip-rule="evenodd" d="M21.062 0.937996C21.2017 1.07733 21.3125 1.24286 21.3881 1.4251C21.4638 1.60733 21.5027 1.80269 21.5027 2C21.5027 2.1973 21.4638 2.39266 21.3881 2.5749C21.3125 2.75713 21.2017 2.92266 21.062 3.062L4.12099 20L21.062 36.938C21.3437 37.2197 21.5019 37.6017 21.5019 38C21.5019 38.3983 21.3437 38.7803 21.062 39.062C20.7803 39.3437 20.3983 39.5019 20 39.5019C19.6017 39.5019 19.2197 39.3437 18.938 39.062L0.937995 21.062C0.798305 20.9227 0.687476 20.7571 0.611857 20.5749C0.536238 20.3927 0.497314 20.1973 0.497314 20C0.497314 19.8027 0.536238 19.6073 0.611857 19.4251C0.687476 19.2429 0.798305 19.0773 0.937995 18.938L18.938 0.937996C19.0773 0.798306 19.2429 0.687478 19.4251 0.611858C19.6073 0.536239 19.8027 0.497314 20 0.497314C20.1973 0.497314 20.3927 0.536239 20.5749 0.611858C20.7571 0.687478 20.9227 0.798306 21.062 0.937996Z" fill="#0052A9"/>
</svg>
