<svg width="24" height="25" viewBox="0 0 24 25" fill="none" xmlns="http://www.w3.org/2000/svg">
<g clip-path="url(#clip0_23_3936)">
<path d="M19.5 3.92858V0.5H4.49996V3.92858H0V7.35716C0.000484031 8.16454 0.167176 8.96046 0.486603 9.68059C0.80603 10.4007 1.26923 11.0249 1.83876 11.5026C2.40829 11.9803 3.06818 12.2981 3.76508 12.4304C4.46199 12.5627 5.17635 12.5058 5.85044 12.2642C6.95136 14.0664 8.61574 15.3167 10.5 15.757V21.0714H8.99997C8.606 21.0714 8.21589 21.1601 7.85191 21.3324C7.48793 21.5047 7.15721 21.7572 6.87863 22.0756C6.60005 22.394 6.37907 22.772 6.22831 23.1879C6.07755 23.6039 5.99996 24.0498 5.99996 24.5H18C18 24.0498 17.9224 23.6039 17.7716 23.1879C17.6209 22.772 17.3999 22.394 17.1213 22.0756C16.8427 21.7572 16.512 21.5047 16.148 21.3324C15.7841 21.1601 15.3939 21.0714 15 21.0714H13.5V15.757C15.3842 15.3167 17.0486 14.0664 18.1495 12.2642C18.8236 12.5058 19.538 12.5627 20.2349 12.4304C20.9318 12.2981 21.5917 11.9803 22.1612 11.5026C22.7307 11.0249 23.1939 10.4007 23.5133 9.68059C23.8328 8.96046 23.9995 8.16454 23.9999 7.35716V3.92858H19.5ZM4.49996 10.4643C3.77915 10.4634 3.08811 10.1357 2.57842 9.5532C2.06874 8.9707 1.78203 8.18094 1.78121 7.35716V5.64287H4.49996V7.35716C4.49905 8.40134 4.66549 9.43688 4.99105 10.4125C4.82906 10.4467 4.66469 10.464 4.49996 10.4642V10.4643ZM22.2187 7.35716C22.2191 7.81286 22.1317 8.26307 21.9627 8.67581C21.7937 9.08856 21.5473 9.45372 21.2409 9.74536C20.9345 10.037 20.5757 10.248 20.1899 10.3633C19.8042 10.4786 19.4009 10.4954 19.0088 10.4125C19.3344 9.43688 19.5008 8.40134 19.4999 7.35716V5.64287H22.2187V7.35716Z" fill="#FFD700"/>
</g>
<defs>
<clipPath id="clip0_23_3936">
<rect width="24" height="24" fill="white" transform="translate(0 0.5)"/>
</clipPath>
</defs>
</svg>
