<svg xmlns="http://www.w3.org/2000/svg" width="16" height="13" fill="none"><rect id="backgroundrect" width="100%" height="100%" x="0" y="0" fill="none" stroke="none"/>

<g class="currentLayer" style=""><title>Layer 1</title><path d="M14.60326996231079,0.32989987777710006 C14.70556996231079,0.22544987777709924 14.827769962310793,0.14246987777709919 14.962669962310791,0.08582987777709938 C15.09746996231079,0.02917987777709996 15.24226996231079,-1.2222290024510585e-7 15.38846996231079,-1.2222290024510585e-7 C15.53476996231079,-1.2222290024510585e-7 15.67956996231079,0.02917987777709996 15.814369962310792,0.08582987777709938 C15.94916996231079,0.14246987777709919 16.07136996231079,0.22544987777709924 16.173769962310793,0.32989987777710006 C16.60276996231079,0.7633998777770996 16.60876996231079,1.4638998777770995 16.18876996231079,1.9048998777770993 L7.319269962310791,12.3899098777771 C7.2185699623107915,12.500509877777098 7.09636996231079,12.5893098777771 6.960069962310792,12.651109877777099 C6.823869962310791,12.7128098777771 6.67646996231079,12.746109877777101 6.52696996231079,12.748909877777098 C6.377369962310791,12.751709877777099 6.228869962310791,12.7240098777771 6.090469962310792,12.6674098777771 C5.951969962310791,12.6108098777771 5.82656996231079,12.526609877777101 5.721769962310791,12.419909877777101 L0.32473996231079116,6.9509098777771 C0.11659996231079095,6.738609877777099 -3.768920908697737e-8,6.4532098777771 -3.768920908697737e-8,6.1559098777771 C-3.768920908697737e-8,5.8586098777771 0.11659996231079095,5.573209877777099 0.32473996231079116,5.3609098777771 C0.4271099623107908,5.2564098777771004 0.549289962310791,5.1735098777771 0.684119962310791,5.116809877777099 C0.8189599623107906,5.060209877777099 0.9637399623107914,5.0310098777771 1.1099899623107916,5.0310098777771 C1.256239962310791,5.0310098777771 1.4010199623107908,5.060209877777099 1.5358599623107914,5.116809877777099 C1.6706899623107914,5.1735098777771 1.7928699623107907,5.2564098777771004 1.8952399623107912,5.3609098777771 L6.473269962310791,10.000409877777098 L14.573269962310793,0.36289987777709953 C14.582569962310792,0.35130987777709954 14.59256996231079,0.3402898777770993 14.60326996231079,0.32989987777710006 z" fill="#28B78F" id="svg_1" class=""/></g></svg>