<svg xmlns="http://www.w3.org/2000/svg" width="3" height="16" fill="none"><rect id="backgroundrect" width="100%" height="100%" x="0" y="0" fill="none" stroke="none"/>

<g class="currentLayer" style=""><title>Layer 1</title><path d="M0.007500000000000284,1.6498199939727787 C-0.013400000000000745,1.4412499939727788 0.009600000000000719,1.2305999939727785 0.07510000000000083,1.0314799939727788 C0.1404999999999994,0.8323499939727785 0.2469999999999999,0.6491499939727783 0.38760000000000083,0.4936999939727782 C0.5282999999999998,0.3382499939727781 0.6998999999999995,0.21400999397277864 0.8915000000000006,0.12896999397277842 C1.0831,0.04393999397277826 1.2904,-6.027221832738405e-9 1.5,-6.027221832738405e-9 C1.7096,-6.027221832738405e-9 1.9169,0.04393999397277826 2.1084999999999994,0.12896999397277842 C2.3001000000000005,0.21400999397277864 2.4717000000000002,0.3382499939727781 2.612399999999999,0.4936999939727782 C2.753,0.6491499939727783 2.8595000000000006,0.8323499939727785 2.924900000000001,1.0314799939727788 C2.9903999999999993,1.2305999939727785 3.0134000000000007,1.4412499939727788 2.9924999999999997,1.6498199939727787 L2.4105000000000008,11.174819993972779 C2.388,11.400719993972778 2.282399999999999,11.610119993972779 2.1141000000000005,11.762519993972779 C1.9459,11.914819993972777 1.7270000000000003,11.999219993972778 1.5,11.999219993972778 C1.2729999999999997,11.999219993972778 1.0541,11.914819993972777 0.8858999999999995,11.762519993972779 C0.7176000000000009,11.610119993972779 0.6120000000000001,11.400719993972778 0.5894999999999992,11.174819993972779 L0.007500000000000284,1.6498199939727787 zM0,14.999819993972778 C0,14.602019993972778 0.15799999999999947,14.22041999397278 0.43929999999999936,13.939119993972778 C0.7205999999999992,13.65781999397278 1.1021999999999998,13.499819993972778 1.5,13.499819993972778 C1.8978000000000002,13.499819993972778 2.2794000000000008,13.65781999397278 2.5607000000000006,13.939119993972778 C2.8420000000000005,14.22041999397278 3,14.602019993972778 3,14.999819993972778 C3,15.397619993972778 2.8420000000000005,15.779219993972777 2.5607000000000006,16.06051999397278 C2.2794000000000008,16.341819993972777 1.8978000000000002,16.49981999397278 1.5,16.49981999397278 C1.1021999999999998,16.49981999397278 0.7205999999999992,16.341819993972777 0.43929999999999936,16.06051999397278 C0.15799999999999947,15.779219993972777 0,15.397619993972778 0,14.999819993972778 z" fill="#FF4747" id="svg_1" class=""/></g></svg>