<svg width="17" height="16" viewBox="0 0 17 16" fill="none" xmlns="http://www.w3.org/2000/svg">
<path d="M10.9595 8C10.9595 8.66304 10.6961 9.29893 10.2272 9.76777C9.7584 10.2366 9.12251 10.5 8.45947 10.5C7.79643 10.5 7.16055 10.2366 6.69171 9.76777C6.22286 9.29893 5.95947 8.66304 5.95947 8C5.95947 7.33696 6.22286 6.70107 6.69171 6.23223C7.16055 5.76339 7.79643 5.5 8.45947 5.5C9.12251 5.5 9.7584 5.76339 10.2272 6.23223C10.6961 6.70107 10.9595 7.33696 10.9595 8Z" fill="#5C93C4"/>
<path d="M0.459473 8C0.459473 8 3.45947 2.5 8.45947 2.5C13.4595 2.5 16.4595 8 16.4595 8C16.4595 8 13.4595 13.5 8.45947 13.5C3.45947 13.5 0.459473 8 0.459473 8ZM8.45947 11.5C9.38773 11.5 10.278 11.1313 10.9343 10.4749C11.5907 9.8185 11.9595 8.92826 11.9595 8C11.9595 7.07174 11.5907 6.1815 10.9343 5.52513C10.278 4.86875 9.38773 4.5 8.45947 4.5C7.53121 4.5 6.64098 4.86875 5.9846 5.52513C5.32822 6.1815 4.95947 7.07174 4.95947 8C4.95947 8.92826 5.32822 9.8185 5.9846 10.4749C6.64098 11.1313 7.53121 11.5 8.45947 11.5Z" fill="#5C93C4"/>
</svg>
