<svg width="25" height="24" viewBox="0 0 25 24" fill="none" xmlns="http://www.w3.org/2000/svg">
<path fill-rule="evenodd" clip-rule="evenodd" d="M14.75 3C14.5511 3 14.3603 2.92098 14.2197 2.78033C14.079 2.63968 14 2.44891 14 2.25C14 2.05109 14.079 1.86032 14.2197 1.71967C14.3603 1.57902 14.5511 1.5 14.75 1.5H22.25C22.4489 1.5 22.6397 1.57902 22.7803 1.71967C22.921 1.86032 23 2.05109 23 2.25V9.75C23 9.94891 22.921 10.1397 22.7803 10.2803C22.6397 10.421 22.4489 10.5 22.25 10.5C22.0511 10.5 21.8603 10.421 21.7197 10.2803C21.579 10.1397 21.5 9.94891 21.5 9.75V4.0605L15.3065 10.254C16.5242 11.7438 17.1228 13.6446 16.9784 15.5633C16.834 17.482 15.9577 19.2718 14.5307 20.5626C13.1037 21.8533 11.2353 22.5463 9.31175 22.4981C7.38822 22.45 5.55678 21.6643 4.19621 20.3038C2.83565 18.9432 2.05004 17.1118 2.00186 15.1882C1.95369 13.2647 2.64665 11.3962 3.9374 9.96928C5.22816 8.54232 7.01798 7.66602 8.93669 7.52162C10.8554 7.37723 12.7562 7.97579 14.246 9.1935L20.4395 3H14.75ZM9.49999 9C7.90869 9 6.38257 9.63214 5.25735 10.7574C4.13213 11.8826 3.49999 13.4087 3.49999 15C3.49999 16.5913 4.13213 18.1174 5.25735 19.2426C6.38257 20.3679 7.90869 21 9.49999 21C11.0913 21 12.6174 20.3679 13.7426 19.2426C14.8678 18.1174 15.5 16.5913 15.5 15C15.5 13.4087 14.8678 11.8826 13.7426 10.7574C12.6174 9.63214 11.0913 9 9.49999 9Z" fill="#5C93C4"/>
</svg>
