<svg width="25" height="24" viewBox="0 0 25 24" fill="none" xmlns="http://www.w3.org/2000/svg">
<path fill-rule="evenodd" clip-rule="evenodd" d="M12.5 1.50003C10.9087 1.50003 9.38258 2.13217 8.25736 3.25739C7.13214 4.38261 6.5 5.90873 6.5 7.50003C6.5 9.09133 7.13214 10.6175 8.25736 11.7427C9.38258 12.8679 10.9087 13.5 12.5 13.5C14.0913 13.5 15.6174 12.8679 16.7426 11.7427C17.8679 10.6175 18.5 9.09133 18.5 7.50003C18.5 5.90873 17.8679 4.38261 16.7426 3.25739C15.6174 2.13217 14.0913 1.50003 12.5 1.50003ZM5 7.50003C5.00002 6.04865 5.42116 4.62846 6.21234 3.41169C7.00352 2.19492 8.13076 1.23385 9.45734 0.645039C10.7839 0.0562321 12.2528 -0.135017 13.686 0.0944869C15.1191 0.323991 16.4548 0.964387 17.5312 1.93801C18.6076 2.91163 19.3783 4.17665 19.7499 5.57964C20.1216 6.98263 20.0782 8.46331 19.625 9.84212C19.1717 11.2209 18.3282 12.4386 17.1966 13.3475C16.0651 14.2564 14.6941 14.8174 13.25 14.9625V18H16.25C16.4489 18 16.6397 18.079 16.7803 18.2197C16.921 18.3604 17 18.5511 17 18.75C17 18.9489 16.921 19.1397 16.7803 19.2804C16.6397 19.421 16.4489 19.5 16.25 19.5H13.25V23.25C13.25 23.4489 13.171 23.6397 13.0303 23.7804C12.8897 23.921 12.6989 24 12.5 24C12.3011 24 12.1103 23.921 11.9697 23.7804C11.829 23.6397 11.75 23.4489 11.75 23.25V19.5H8.75C8.55109 19.5 8.36032 19.421 8.21967 19.2804C8.07902 19.1397 8 18.9489 8 18.75C8 18.5511 8.07902 18.3604 8.21967 18.2197C8.36032 18.079 8.55109 18 8.75 18H11.75V14.9625C9.90003 14.7766 8.18506 13.9101 6.93782 12.5312C5.69058 11.1523 4.99998 9.35933 5 7.50003Z" fill="#5C93C4"/>
</svg>
