<svg width="17" height="16" viewBox="0 0 17 16" fill="none" xmlns="http://www.w3.org/2000/svg">
<path fill-rule="evenodd" clip-rule="evenodd" d="M0.819824 0H1.81982V15H16.8198V16H0.819824V0ZM10.8198 3.5C10.8198 3.36739 10.8725 3.24021 10.9663 3.14645C11.06 3.05268 11.1872 3 11.3198 3H15.3198C15.4524 3 15.5796 3.05268 15.6734 3.14645C15.7671 3.24021 15.8198 3.36739 15.8198 3.5V7.5C15.8198 7.63261 15.7671 7.75979 15.6734 7.85355C15.5796 7.94732 15.4524 8 15.3198 8C15.1872 8 15.06 7.94732 14.9663 7.85355C14.8725 7.75979 14.8198 7.63261 14.8198 7.5V4.9L11.2068 9.317C11.1626 9.37099 11.1076 9.41511 11.0452 9.44655C10.9829 9.47798 10.9147 9.49602 10.845 9.4995C10.7753 9.50299 10.7057 9.49184 10.6405 9.46678C10.5754 9.44172 10.5162 9.4033 10.4668 9.354L7.87982 6.767L4.22382 11.794C4.14385 11.8957 4.02756 11.9624 3.89941 11.9802C3.77125 11.9979 3.64121 11.9653 3.5366 11.8892C3.43199 11.8131 3.36096 11.6994 3.33843 11.572C3.31591 11.4446 3.34365 11.3134 3.41582 11.206L7.41582 5.706C7.45828 5.64751 7.51291 5.59893 7.57595 5.56359C7.639 5.52825 7.70895 5.50699 7.78099 5.50129C7.85304 5.49559 7.92547 5.50557 7.99328 5.53055C8.0611 5.55554 8.12269 5.59492 8.17382 5.646L10.7828 8.256L14.2648 4H11.3198C11.1872 4 11.06 3.94732 10.9663 3.85355C10.8725 3.75979 10.8198 3.63261 10.8198 3.5Z" fill="#0052A9"/>
</svg>
