<svg width="17" height="16" viewBox="0 0 17 16" fill="none" xmlns="http://www.w3.org/2000/svg">
<path d="M15.6396 14C15.6396 14 16.6396 14 16.6396 13C16.6396 12 15.6396 9 11.6396 9C7.63965 9 6.63965 12 6.63965 13C6.63965 14 7.63965 14 7.63965 14H15.6396ZM7.66165 13C7.65426 12.999 7.64692 12.9976 7.63965 12.996C7.64065 12.732 7.80665 11.966 8.39965 11.276C8.95165 10.629 9.92165 10 11.6396 10C13.3566 10 14.3266 10.63 14.8796 11.276C15.4726 11.966 15.6376 12.733 15.6396 12.996L15.6316 12.998C15.627 12.9988 15.6223 12.9995 15.6176 13H7.66165ZM11.6396 7C12.1701 7 12.6788 6.78929 13.0539 6.41421C13.4289 6.03914 13.6396 5.53043 13.6396 5C13.6396 4.46957 13.4289 3.96086 13.0539 3.58579C12.6788 3.21071 12.1701 3 11.6396 3C11.1092 3 10.6005 3.21071 10.2254 3.58579C9.85036 3.96086 9.63965 4.46957 9.63965 5C9.63965 5.53043 9.85036 6.03914 10.2254 6.41421C10.6005 6.78929 11.1092 7 11.6396 7ZM14.6396 5C14.6396 5.39397 14.5621 5.78407 14.4113 6.14805C14.2605 6.51203 14.0395 6.84274 13.761 7.12132C13.4824 7.3999 13.1517 7.62087 12.7877 7.77164C12.4237 7.9224 12.0336 8 11.6396 8C11.2457 8 10.8556 7.9224 10.4916 7.77164C10.1276 7.62087 9.7969 7.3999 9.51833 7.12132C9.23975 6.84274 9.01877 6.51203 8.86801 6.14805C8.71725 5.78407 8.63965 5.39397 8.63965 5C8.63965 4.20435 8.95572 3.44129 9.51833 2.87868C10.0809 2.31607 10.844 2 11.6396 2C12.4353 2 13.1984 2.31607 13.761 2.87868C14.3236 3.44129 14.6396 4.20435 14.6396 5ZM7.57565 9.28C7.17563 9.15404 6.76328 9.07123 6.34565 9.033C6.11098 9.01068 5.87537 8.99967 5.63965 9C1.63965 9 0.639648 12 0.639648 13C0.639648 13.667 0.972648 14 1.63965 14H5.85565C5.7074 13.6878 5.63347 13.3455 5.63965 13C5.63965 11.99 6.01665 10.958 6.72965 10.096C6.97265 9.802 7.25565 9.527 7.57565 9.28ZM5.55965 10C4.9678 10.8893 4.64809 11.9318 4.63965 13H1.63965C1.63965 12.74 1.80365 11.97 2.39965 11.276C2.94465 10.64 3.89165 10.02 5.55965 10.001V10ZM2.13965 5.5C2.13965 4.70435 2.45572 3.94129 3.01833 3.37868C3.58094 2.81607 4.344 2.5 5.13965 2.5C5.9353 2.5 6.69836 2.81607 7.26097 3.37868C7.82358 3.94129 8.13965 4.70435 8.13965 5.5C8.13965 6.29565 7.82358 7.05871 7.26097 7.62132C6.69836 8.18393 5.9353 8.5 5.13965 8.5C4.344 8.5 3.58094 8.18393 3.01833 7.62132C2.45572 7.05871 2.13965 6.29565 2.13965 5.5ZM5.13965 3.5C4.60922 3.5 4.10051 3.71071 3.72543 4.08579C3.35036 4.46086 3.13965 4.96957 3.13965 5.5C3.13965 6.03043 3.35036 6.53914 3.72543 6.91421C4.10051 7.28929 4.60922 7.5 5.13965 7.5C5.67008 7.5 6.17879 7.28929 6.55386 6.91421C6.92894 6.53914 7.13965 6.03043 7.13965 5.5C7.13965 4.96957 6.92894 4.46086 6.55386 4.08579C6.17879 3.71071 5.67008 3.5 5.13965 3.5Z" fill="#0052A9"/>
</svg>
