<svg width="24" height="15" viewBox="0 0 24 15" fill="none" xmlns="http://www.w3.org/2000/svg">
<path d="M16.3012 1.17596e-06H13.08C12.7801 5.62655e-05 12.4911 0.112431 12.27 0.314979L8.58376 3.69001C8.58003 3.69374 8.57625 3.70125 8.57252 3.70503C8.28497 3.97385 8.11533 4.34544 8.10058 4.7388C8.08583 5.13217 8.22716 5.51541 8.49378 5.80502C8.97002 6.32629 9.97127 6.46502 10.5975 5.90625C10.6013 5.90252 10.6088 5.90252 10.6126 5.89873L13.6088 3.15371C13.6669 3.10018 13.7349 3.05863 13.8091 3.03146C13.8832 3.00428 13.962 2.99202 14.0409 2.99536C14.1198 2.9987 14.1973 3.01759 14.2689 3.05095C14.3404 3.0843 14.4047 3.13145 14.458 3.18971C14.5114 3.24797 14.5526 3.31618 14.5795 3.39043C14.6064 3.46468 14.6184 3.54351 14.6147 3.62239C14.6111 3.70127 14.5919 3.77866 14.5583 3.85011C14.5246 3.92156 14.4772 3.98567 14.4188 4.03876L13.44 4.935L18.9 9.36748C19.006 9.45602 19.105 9.55256 19.1963 9.65624V2.4L17.1488 0.352279C17.0378 0.240451 16.9058 0.151736 16.7603 0.0912683C16.6148 0.0308005 16.4588 -0.000220143 16.3013 1.17596e-06H16.3012ZM20.4 2.40751V10.8037C20.3998 10.9614 20.4307 11.1175 20.491 11.2632C20.5512 11.4088 20.6396 11.5412 20.7511 11.6527C20.8625 11.7641 20.9949 11.8525 21.1406 11.9128C21.2862 11.973 21.4424 12.0039 21.6 12.0038H24V2.40751H20.4ZM22.2 10.8037C22.0813 10.8037 21.9653 10.7685 21.8666 10.7026C21.7679 10.6367 21.691 10.543 21.6456 10.4333C21.6002 10.3237 21.5883 10.2031 21.6115 10.0867C21.6346 9.97027 21.6918 9.86336 21.7757 9.77945C21.8596 9.69554 21.9665 9.63839 22.0829 9.61524C22.1993 9.59209 22.3199 9.60397 22.4296 9.64938C22.5392 9.6948 22.6329 9.7717 22.6989 9.87037C22.7648 9.96905 22.8 10.0851 22.8 10.2037C22.7995 10.3627 22.7362 10.515 22.6237 10.6275C22.5113 10.7399 22.359 10.8033 22.2 10.8037H22.2ZM0 12H2.39999C2.55763 12.0002 2.71375 11.9693 2.85943 11.909C3.0051 11.8488 3.13745 11.7604 3.24892 11.6489C3.36039 11.5375 3.44877 11.4051 3.50902 11.2594C3.56927 11.1138 3.60019 10.9576 3.60002 10.8V2.40751H0V12ZM1.79998 9.60376C1.91865 9.60376 2.03466 9.63895 2.13333 9.70488C2.232 9.77081 2.30891 9.86452 2.35432 9.97416C2.39974 10.0838 2.41162 10.2044 2.38847 10.3208C2.36531 10.4372 2.30817 10.5441 2.22426 10.628C2.14034 10.712 2.03343 10.7691 1.91704 10.7923C1.80065 10.8154 1.68001 10.8035 1.57037 10.7581C1.46073 10.7127 1.36702 10.6358 1.30109 10.5371C1.23516 10.4385 1.19997 10.3224 1.19997 10.2038C1.20044 10.0448 1.2638 9.89244 1.37622 9.78001C1.48865 9.66759 1.64099 9.60423 1.79998 9.60376ZM18.1462 10.3013L12.5473 5.75627L11.4223 6.78751C11.161 7.02709 10.8552 7.21287 10.5221 7.33424C10.1891 7.45561 9.83541 7.5102 9.48127 7.49488C8.76606 7.46395 8.09243 7.15017 7.60857 6.62256C7.12472 6.09496 6.87027 5.39675 6.9012 4.68154C6.93214 3.96633 7.24592 3.2927 7.77352 2.80885L10.8412 1.17596e-06H7.69872C7.54123 0.000126542 7.38532 0.0313053 7.2399 0.0917532C7.09447 0.152201 6.9624 0.240732 6.85123 0.352279L4.79973 2.39979V10.7963H5.48621L8.87993 13.8675C9.37377 14.2687 10.0067 14.4574 10.6396 14.392C11.2725 14.3266 11.8536 14.0125 12.2549 13.5188L12.2624 13.5112L12.9337 14.0925C13.0757 14.2081 13.2391 14.2945 13.4146 14.3469C13.5901 14.3992 13.7741 14.4165 13.9563 14.3977C14.1384 14.3789 14.3151 14.3244 14.4761 14.2373C14.6372 14.1501 14.7795 14.0321 14.8949 13.89L16.0724 12.4425L16.2749 12.6075C16.3972 12.7069 16.5379 12.7813 16.689 12.8263C16.84 12.8712 16.9985 12.886 17.1552 12.8696C17.312 12.8532 17.464 12.8061 17.6025 12.7309C17.741 12.6557 17.8633 12.5539 17.9624 12.4314L18.3187 11.9926C18.5201 11.7455 18.615 11.4284 18.5827 11.1113C18.5503 10.7941 18.3933 10.5028 18.1462 10.3014L18.1462 10.3013Z" fill="#0052A9"/>
</svg>
