<svg width="252" height="40" viewBox="0 0 252 40" fill="none" xmlns="http://www.w3.org/2000/svg">
<g clip-path="url(#clip0_23_2034)">
<path d="M54.02 35.29C53.61 35.415 53.135 35.53 52.6 35.645C52.065 35.76 51.505 35.855 50.92 35.94C50.335 36.02 49.735 36.09 49.13 36.14C48.525 36.19 47.94 36.215 47.385 36.215C46.05 36.215 44.855 36.02 43.805 35.63C42.755 35.24 41.87 34.68 41.15 33.95C40.43 33.22 39.88 32.335 39.5 31.295C39.12 30.255 38.93 29.09 38.93 27.795C38.93 26.48 39.095 25.29 39.425 24.235C39.755 23.175 40.225 22.275 40.845 21.535C41.465 20.795 42.22 20.23 43.11 19.84C44.005 19.45 45.025 19.255 46.18 19.255C46.815 19.255 47.39 19.315 47.89 19.44C48.395 19.565 48.905 19.74 49.415 19.965V12.62L54.01 11.88V35.29H54.02ZM43.625 27.58C43.625 29 43.945 30.14 44.58 31.005C45.215 31.87 46.165 32.3 47.42 32.3C47.83 32.3 48.21 32.285 48.56 32.255C48.91 32.225 49.195 32.19 49.425 32.145V23.785C49.135 23.6 48.76 23.445 48.3 23.325C47.835 23.2 47.37 23.14 46.895 23.14C44.715 23.14 43.625 24.62 43.625 27.58Z" fill="white"/>
<path d="M64.165 19.16C65.52 19.16 66.655 19.315 67.56 19.625C68.465 19.935 69.19 20.375 69.735 20.95C70.28 21.525 70.665 22.225 70.89 23.05C71.115 23.875 71.23 24.79 71.23 25.795V35.355C70.57 35.5 69.655 35.67 68.485 35.865C67.315 36.06 65.895 36.16 64.23 36.16C63.18 36.16 62.23 36.065 61.375 35.88C60.52 35.695 59.785 35.39 59.17 34.97C58.555 34.55 58.08 34 57.75 33.32C57.42 32.64 57.255 31.81 57.255 30.82C57.255 29.875 57.445 29.07 57.825 28.415C58.205 27.755 58.715 27.235 59.35 26.84C59.985 26.45 60.715 26.165 61.54 25.99C62.36 25.815 63.215 25.73 64.1 25.73C64.695 25.73 65.225 25.755 65.69 25.805C66.155 25.855 66.53 25.925 66.815 26.005V25.575C66.815 24.795 66.58 24.165 66.105 23.695C65.63 23.22 64.81 22.985 63.635 22.985C62.855 22.985 62.08 23.04 61.32 23.155C60.56 23.27 59.9 23.43 59.345 23.635L58.76 19.935C59.025 19.855 59.36 19.765 59.76 19.675C60.16 19.58 60.6 19.5 61.07 19.43C61.545 19.36 62.04 19.295 62.565 19.245C63.1 19.185 63.63 19.16 64.165 19.16ZM64.535 32.61C64.985 32.61 65.42 32.6 65.83 32.58C66.24 32.56 66.57 32.53 66.815 32.485V29C66.63 28.96 66.35 28.92 65.98 28.875C65.61 28.835 65.27 28.815 64.96 28.815C64.53 28.815 64.12 28.84 63.74 28.89C63.36 28.94 63.025 29.04 62.74 29.185C62.45 29.33 62.225 29.525 62.06 29.77C61.895 30.015 61.815 30.325 61.815 30.695C61.815 31.415 62.055 31.915 62.54 32.19C63.03 32.47 63.695 32.61 64.535 32.61Z" fill="white"/>
<path d="M75.24 15.55L79.835 14.81V19.59H85.355V23.415H79.835V29.12C79.835 30.085 80.005 30.86 80.345 31.435C80.685 32.01 81.37 32.3 82.395 32.3C82.89 32.3 83.395 32.255 83.92 32.16C84.445 32.07 84.92 31.94 85.355 31.775L86.005 35.355C85.45 35.58 84.835 35.775 84.155 35.94C83.475 36.105 82.645 36.185 81.655 36.185C80.4 36.185 79.36 36.015 78.54 35.675C77.715 35.335 77.06 34.865 76.565 34.255C76.07 33.65 75.725 32.915 75.53 32.05C75.335 31.185 75.235 30.23 75.235 29.18V15.55H75.24Z" fill="white"/>
<path d="M94.3 19.16C95.655 19.16 96.79 19.315 97.695 19.625C98.6 19.935 99.325 20.375 99.87 20.95C100.415 21.525 100.8 22.225 101.025 23.05C101.25 23.875 101.365 24.79 101.365 25.795V35.355C100.705 35.5 99.79 35.67 98.62 35.865C97.45 36.06 96.03 36.16 94.365 36.16C93.315 36.16 92.365 36.065 91.51 35.88C90.655 35.695 89.92 35.39 89.305 34.97C88.69 34.55 88.215 34 87.885 33.32C87.555 32.64 87.39 31.81 87.39 30.82C87.39 29.875 87.58 29.07 87.96 28.415C88.34 27.755 88.85 27.235 89.485 26.84C90.12 26.45 90.85 26.165 91.675 25.99C92.495 25.815 93.35 25.73 94.235 25.73C94.83 25.73 95.36 25.755 95.825 25.805C96.29 25.855 96.665 25.925 96.95 26.005V25.575C96.95 24.795 96.715 24.165 96.24 23.695C95.765 23.22 94.945 22.985 93.77 22.985C92.99 22.985 92.215 23.04 91.455 23.155C90.695 23.27 90.035 23.43 89.48 23.635L88.895 19.935C89.16 19.855 89.495 19.765 89.895 19.675C90.295 19.58 90.735 19.5 91.205 19.43C91.68 19.36 92.175 19.295 92.7 19.245C93.24 19.185 93.765 19.16 94.3 19.16ZM94.67 32.61C95.12 32.61 95.555 32.6 95.965 32.58C96.375 32.56 96.705 32.53 96.95 32.485V29C96.765 28.96 96.485 28.92 96.115 28.875C95.745 28.835 95.405 28.815 95.095 28.815C94.665 28.815 94.255 28.84 93.875 28.89C93.495 28.94 93.16 29.04 92.875 29.185C92.585 29.33 92.36 29.525 92.195 29.77C92.03 30.015 91.95 30.325 91.95 30.695C91.95 31.415 92.19 31.915 92.675 32.19C93.165 32.47 93.83 32.61 94.67 32.61Z" fill="white"/>
<path d="M111.885 11.88C112.75 11.88 113.455 11.945 114 12.08C114.545 12.215 114.9 12.33 115.065 12.435L114.665 14.165C114.44 14.06 114.105 13.955 113.665 13.84C113.225 13.725 112.665 13.67 111.985 13.67C110.565 13.67 109.555 14.03 108.945 14.75C108.34 15.47 108.035 16.62 108.035 18.205V19.87H114.45V21.565H108.035V35.815H106.03V18.14C106.03 16.065 106.51 14.5 107.465 13.45C108.415 12.405 109.89 11.88 111.885 11.88Z" fill="white"/>
<path d="M122.465 19.5C123.515 19.5 124.405 19.65 125.135 19.945C125.865 20.245 126.455 20.655 126.91 21.18C127.36 21.705 127.69 22.325 127.895 23.045C128.1 23.765 128.205 24.545 128.205 25.39V35.445C128 35.505 127.7 35.575 127.31 35.645C126.92 35.715 126.465 35.795 125.955 35.875C125.44 35.955 124.87 36.025 124.245 36.075C123.62 36.125 122.975 36.15 122.315 36.15C121.47 36.15 120.695 36.055 119.985 35.87C119.275 35.685 118.66 35.39 118.135 34.99C117.61 34.59 117.2 34.075 116.9 33.45C116.6 32.825 116.455 32.055 116.455 31.15C116.455 30.285 116.62 29.545 116.95 28.93C117.28 28.315 117.74 27.805 118.34 27.405C118.935 27.005 119.645 26.71 120.47 26.525C121.29 26.34 122.185 26.25 123.155 26.25C123.445 26.25 123.745 26.265 124.065 26.295C124.385 26.325 124.69 26.365 124.99 26.42C125.29 26.47 125.545 26.525 125.76 26.575C125.975 26.625 126.125 26.675 126.205 26.715V25.73C126.205 25.175 126.165 24.635 126.08 24.11C126 23.585 125.82 23.115 125.54 22.69C125.26 22.27 124.87 21.93 124.37 21.67C123.865 21.415 123.205 21.285 122.38 21.285C121.21 21.285 120.335 21.37 119.76 21.53C119.185 21.695 118.76 21.83 118.495 21.93L118.215 20.17C118.565 20.005 119.105 19.85 119.835 19.71C120.555 19.57 121.435 19.5 122.465 19.5ZM122.65 34.365C123.43 34.365 124.115 34.34 124.7 34.29C125.285 34.24 125.785 34.17 126.195 34.09V28.475C125.97 28.37 125.61 28.265 125.115 28.15C124.62 28.035 123.945 27.98 123.08 27.98C122.585 27.98 122.07 28.015 121.54 28.09C121.005 28.16 120.51 28.315 120.06 28.55C119.605 28.785 119.235 29.11 118.95 29.52C118.66 29.93 118.52 30.475 118.52 31.155C118.52 31.75 118.615 32.255 118.815 32.665C119.01 33.075 119.29 33.405 119.65 33.65C120.01 33.895 120.44 34.075 120.945 34.19C121.44 34.31 122.01 34.365 122.65 34.365Z" fill="white"/>
<path d="M133.32 20.425C133.915 20.26 134.72 20.075 135.725 19.87C136.73 19.665 137.965 19.56 139.425 19.56C140.64 19.56 141.65 19.735 142.465 20.085C143.275 20.435 143.925 20.935 144.41 21.58C144.895 22.23 145.24 23.005 145.445 23.91C145.65 24.815 145.755 25.81 145.755 26.9V35.815H143.75V27.55C143.75 26.42 143.675 25.465 143.52 24.68C143.365 23.9 143.11 23.26 142.75 22.765C142.39 22.27 141.915 21.915 141.33 21.7C140.745 21.485 140.01 21.375 139.125 21.375C138.18 21.375 137.36 21.425 136.675 21.53C135.985 21.635 135.54 21.725 135.335 21.805V35.81H133.33V20.425H133.32Z" fill="white"/>
<path d="M155.715 19.5C156.765 19.5 157.655 19.65 158.385 19.945C159.115 20.245 159.705 20.655 160.16 21.18C160.615 21.705 160.94 22.325 161.145 23.045C161.35 23.765 161.455 24.545 161.455 25.39V35.445C161.25 35.505 160.95 35.575 160.56 35.645C160.17 35.715 159.715 35.795 159.205 35.875C158.69 35.955 158.12 36.025 157.495 36.075C156.87 36.125 156.225 36.15 155.565 36.15C154.72 36.15 153.945 36.055 153.235 35.87C152.525 35.685 151.91 35.39 151.385 34.99C150.86 34.59 150.45 34.075 150.15 33.45C149.85 32.825 149.705 32.055 149.705 31.15C149.705 30.285 149.87 29.545 150.2 28.93C150.53 28.315 150.99 27.805 151.59 27.405C152.185 27.005 152.895 26.71 153.72 26.525C154.54 26.34 155.435 26.25 156.405 26.25C156.695 26.25 156.995 26.265 157.315 26.295C157.635 26.325 157.94 26.365 158.24 26.42C158.54 26.47 158.795 26.525 159.01 26.575C159.225 26.625 159.375 26.675 159.455 26.715V25.73C159.455 25.175 159.415 24.635 159.33 24.11C159.245 23.585 159.07 23.115 158.79 22.69C158.515 22.27 158.12 21.93 157.62 21.67C157.115 21.415 156.455 21.285 155.63 21.285C154.46 21.285 153.585 21.37 153.01 21.53C152.435 21.695 152.01 21.83 151.745 21.93L151.465 20.17C151.815 20.005 152.355 19.85 153.085 19.71C153.805 19.57 154.685 19.5 155.715 19.5ZM155.9 34.365C156.68 34.365 157.365 34.34 157.95 34.29C158.535 34.24 159.035 34.17 159.445 34.09V28.475C159.22 28.37 158.86 28.265 158.365 28.15C157.87 28.035 157.195 27.98 156.33 27.98C155.835 27.98 155.32 28.015 154.79 28.09C154.255 28.16 153.76 28.315 153.31 28.55C152.855 28.785 152.485 29.11 152.2 29.52C151.91 29.93 151.77 30.475 151.77 31.155C151.77 31.75 151.865 32.255 152.065 32.665C152.26 33.075 152.54 33.405 152.9 33.65C153.26 33.895 153.69 34.075 154.195 34.19C154.69 34.31 155.26 34.365 155.9 34.365Z" fill="white"/>
<path d="M168.455 19.87H174.81V21.565H168.455V30.045C168.455 30.95 168.53 31.685 168.685 32.25C168.84 32.815 169.06 33.25 169.35 33.56C169.64 33.87 169.985 34.075 170.4 34.175C170.81 34.28 171.265 34.33 171.755 34.33C172.6 34.33 173.275 34.23 173.79 34.035C174.305 33.84 174.705 33.66 174.995 33.495L175.49 35.16C175.2 35.345 174.7 35.555 173.98 35.79C173.26 36.025 172.48 36.145 171.635 36.145C170.65 36.145 169.82 36.015 169.15 35.76C168.48 35.505 167.945 35.115 167.545 34.59C167.145 34.065 166.86 33.415 166.695 32.63C166.53 31.85 166.45 30.925 166.45 29.855V15.18L168.455 14.81V19.87Z" fill="white"/>
<path d="M180.975 15.055C180.975 15.53 180.83 15.905 180.545 16.18C180.255 16.46 179.905 16.595 179.495 16.595C179.085 16.595 178.735 16.455 178.445 16.18C178.155 15.905 178.015 15.53 178.015 15.055C178.015 14.58 178.16 14.205 178.445 13.93C178.735 13.65 179.08 13.515 179.495 13.515C179.905 13.515 180.255 13.655 180.545 13.93C180.83 14.21 180.975 14.585 180.975 15.055ZM180.515 35.815H178.51V19.87H180.515V35.815Z" fill="white"/>
<path d="M192.42 36.155C191.185 36.155 190.095 35.96 189.15 35.57C188.205 35.18 187.42 34.62 186.79 33.89C186.165 33.16 185.685 32.285 185.355 31.27C185.025 30.25 184.86 29.125 184.86 27.895C184.86 26.64 185.03 25.5 185.37 24.47C185.71 23.44 186.2 22.555 186.835 21.815C187.47 21.075 188.245 20.505 189.15 20.105C190.055 19.705 191.075 19.505 192.205 19.505C193.07 19.505 193.875 19.575 194.625 19.72C195.375 19.865 195.955 20.05 196.37 20.275L195.845 22C195.435 21.795 194.97 21.63 194.455 21.505C193.94 21.38 193.25 21.32 192.39 21.32C190.62 21.32 189.28 21.89 188.365 23.03C187.45 24.17 186.99 25.79 186.99 27.89C186.99 28.835 187.095 29.705 187.3 30.495C187.505 31.285 187.84 31.965 188.3 32.53C188.765 33.095 189.36 33.54 190.09 33.855C190.82 34.175 191.71 34.335 192.76 34.335C193.625 34.335 194.35 34.235 194.935 34.04C195.52 33.845 195.95 33.675 196.215 33.53L196.645 35.26C196.275 35.465 195.695 35.665 194.9 35.86C194.11 36.06 193.285 36.155 192.42 36.155Z" fill="white"/>
<path d="M203.275 34.395C204.425 34.395 205.375 34.205 206.13 33.825C206.88 33.445 207.255 32.805 207.255 31.895C207.255 31.465 207.19 31.095 207.055 30.785C206.92 30.475 206.7 30.2 206.39 29.95C206.08 29.705 205.675 29.465 205.17 29.24C204.665 29.015 204.045 28.745 203.305 28.44C202.71 28.195 202.145 27.94 201.61 27.685C201.075 27.43 200.6 27.13 200.19 26.79C199.78 26.45 199.45 26.045 199.205 25.57C198.96 25.095 198.835 24.52 198.835 23.84C198.835 22.545 199.325 21.495 200.3 20.695C201.275 19.895 202.62 19.49 204.325 19.49C205.415 19.49 206.315 19.585 207.025 19.77C207.735 19.955 208.235 20.12 208.52 20.265L208.055 22.055C207.81 21.93 207.39 21.765 206.805 21.56C206.22 21.355 205.36 21.25 204.23 21.25C203.775 21.25 203.35 21.295 202.95 21.39C202.55 21.485 202.195 21.625 201.885 21.825C201.575 22.02 201.33 22.27 201.145 22.565C200.96 22.86 200.87 23.23 200.87 23.66C200.87 24.095 200.95 24.465 201.115 24.775C201.28 25.085 201.52 25.36 201.84 25.595C202.16 25.83 202.55 26.055 203.01 26.26C203.47 26.465 204 26.69 204.6 26.935C205.215 27.18 205.81 27.43 206.375 27.685C206.94 27.94 207.44 28.25 207.87 28.61C208.3 28.97 208.65 29.4 208.92 29.905C209.185 30.41 209.32 31.04 209.32 31.8C209.32 33.24 208.78 34.33 207.7 35.07C206.62 35.81 205.145 36.18 203.275 36.18C201.875 36.18 200.805 36.06 200.065 35.825C199.325 35.59 198.83 35.41 198.585 35.285L199.11 33.465C199.17 33.505 199.305 33.575 199.51 33.665C199.715 33.755 199.995 33.86 200.345 33.975C200.695 34.09 201.11 34.185 201.595 34.27C202.08 34.355 202.64 34.395 203.275 34.395Z" fill="white"/>
<path d="M216.045 34.49C216.045 34.965 215.895 35.365 215.6 35.695C215.3 36.025 214.885 36.19 214.35 36.19C213.815 36.19 213.4 36.025 213.1 35.695C212.8 35.365 212.655 34.965 212.655 34.49C212.655 34.015 212.805 33.615 213.1 33.285C213.4 32.955 213.815 32.79 214.35 32.79C214.885 32.79 215.3 32.955 215.6 33.285C215.895 33.615 216.045 34.015 216.045 34.49Z" fill="white"/>
<path d="M220.795 20.425C221.39 20.26 222.195 20.075 223.2 19.87C224.205 19.665 225.44 19.56 226.9 19.56C228.115 19.56 229.125 19.735 229.94 20.085C230.75 20.435 231.4 20.935 231.885 21.58C232.37 22.23 232.715 23.005 232.92 23.91C233.125 24.815 233.23 25.81 233.23 26.9V35.815H231.225V27.55C231.225 26.42 231.15 25.465 230.995 24.68C230.84 23.9 230.585 23.26 230.225 22.765C229.865 22.27 229.39 21.915 228.805 21.7C228.22 21.485 227.485 21.375 226.6 21.375C225.655 21.375 224.835 21.425 224.15 21.53C223.46 21.635 223.015 21.725 222.81 21.805V35.81H220.805V20.425H220.795Z" fill="white"/>
<path d="M242.385 36.095C241.705 36.075 241.115 35.985 240.61 35.835C240.105 35.68 239.685 35.445 239.345 35.125C239.005 34.805 238.75 34.395 238.575 33.89C238.4 33.385 238.315 32.755 238.315 31.995V12.25L240.32 11.88V31.93C240.32 32.425 240.365 32.82 240.46 33.12C240.555 33.42 240.69 33.655 240.875 33.83C241.06 34.005 241.3 34.135 241.6 34.215C241.9 34.3 242.255 34.37 242.665 34.43L242.385 36.095Z" fill="white"/>
<path d="M251.79 32.345C251.79 32.92 251.695 33.43 251.51 33.875C251.325 34.32 251.075 34.7 250.765 35.01C250.455 35.32 250.095 35.555 249.685 35.72C249.275 35.885 248.845 35.965 248.4 35.965C247.955 35.965 247.525 35.885 247.115 35.72C246.705 35.555 246.345 35.32 246.035 35.01C245.725 34.7 245.475 34.32 245.29 33.875C245.105 33.43 245.01 32.92 245.01 32.345C245.01 31.78 245.105 31.27 245.29 30.82C245.475 30.37 245.725 29.99 246.035 29.685C246.345 29.38 246.705 29.145 247.115 28.98C247.525 28.815 247.955 28.735 248.4 28.735C248.845 28.735 249.275 28.815 249.685 28.98C250.095 29.145 250.455 29.38 250.765 29.685C251.075 29.99 251.325 30.37 251.51 30.82C251.695 31.27 251.79 31.78 251.79 32.345ZM251.2 32.345C251.2 31.885 251.13 31.465 250.99 31.085C250.85 30.705 250.655 30.38 250.41 30.11C250.165 29.84 249.87 29.63 249.525 29.485C249.18 29.34 248.805 29.265 248.4 29.265C247.995 29.265 247.62 29.34 247.275 29.485C246.93 29.63 246.635 29.84 246.39 30.11C246.145 30.38 245.95 30.705 245.81 31.085C245.67 31.465 245.6 31.885 245.6 32.345C245.6 32.805 245.67 33.225 245.81 33.605C245.95 33.985 246.145 34.31 246.39 34.58C246.635 34.85 246.93 35.06 247.275 35.21C247.62 35.36 247.995 35.435 248.4 35.435C248.805 35.435 249.18 35.36 249.525 35.21C249.87 35.06 250.165 34.85 250.41 34.58C250.655 34.31 250.85 33.985 250.99 33.605C251.13 33.225 251.2 32.805 251.2 32.345ZM249.48 34.325C249.305 34.01 249.125 33.715 248.94 33.43C248.755 33.145 248.59 32.92 248.45 32.755C248.405 32.76 248.36 32.765 248.32 32.765C248.28 32.765 248.245 32.765 248.21 32.765H247.58V34.325H247.03V30.455C247.185 30.42 247.355 30.395 247.545 30.375C247.735 30.355 247.915 30.345 248.08 30.345C248.645 30.345 249.08 30.45 249.375 30.655C249.67 30.86 249.82 31.175 249.82 31.595C249.82 31.835 249.755 32.05 249.62 32.24C249.485 32.43 249.29 32.57 249.03 32.665C249.085 32.725 249.155 32.815 249.245 32.94C249.335 33.065 249.43 33.2 249.53 33.355C249.63 33.51 249.73 33.67 249.83 33.845C249.93 34.02 250.015 34.18 250.09 34.325H249.48ZM247.58 32.315H248.08C248.245 32.315 248.4 32.305 248.54 32.285C248.68 32.265 248.8 32.225 248.905 32.17C249.01 32.115 249.09 32.04 249.145 31.945C249.2 31.85 249.23 31.73 249.23 31.585C249.23 31.445 249.2 31.325 249.135 31.23C249.07 31.135 248.99 31.055 248.885 30.995C248.78 30.935 248.665 30.89 248.53 30.865C248.395 30.84 248.255 30.825 248.11 30.825C248.01 30.825 247.915 30.825 247.825 30.83C247.735 30.835 247.655 30.84 247.58 30.845V32.315Z" fill="white"/>
<path d="M35.605 7.76V0C33.305 0.005 31.205 0.42 29.35 1.185C29.34 1.19 29.33 1.195 29.315 1.2C29.175 1.255 29.045 1.32 28.91 1.38C28.79 1.435 28.665 1.485 28.545 1.545C28.405 1.615 28.27 1.69 28.135 1.76C28.02 1.82 27.9 1.88 27.79 1.945C27.655 2.02 27.53 2.105 27.4 2.185C27.29 2.255 27.175 2.315 27.07 2.385C26.945 2.47 26.82 2.56 26.7 2.645C26.595 2.72 26.485 2.79 26.385 2.865C26.265 2.955 26.15 3.055 26.03 3.15C25.93 3.23 25.83 3.305 25.735 3.39C25.615 3.495 25.5 3.605 25.38 3.715C25.295 3.795 25.205 3.87 25.12 3.955C24.985 4.085 24.86 4.225 24.73 4.365C24.67 4.43 24.605 4.495 24.545 4.56C24.36 4.77 24.18 4.985 24.01 5.205C22.26 7.45 21.165 10.355 21 13.77V14.82L20.955 14.745C19.405 12.585 16.63 11.195 13.14 11.195C7.32 11.195 -3.8147e-06 15.465 -3.8147e-06 25.61C-3.8147e-06 33.925 6.1 40.02 14.745 40.02C15.735 40.02 16.685 39.94 17.6 39.79V31.645C16.765 32.04 15.805 32.26 14.745 32.26C10.975 32.26 8.425 29.545 8.425 25.61C8.425 21.675 10.975 18.96 14.745 18.96C17.995 18.96 20.405 21.135 21 24.235V38.895C22.2 38.4 23.295 37.76 24.265 36.98C27.25 34.59 29.32 30.325 29.32 26.31V23.975C30.06 21.385 32.19 19.72 35.07 19.71V12.26C33 12.265 31.1 12.63 29.4 13.28C29.84 9.975 32.225 7.77 35.605 7.76Z" fill="white"/>
</g>
<defs>
<clipPath id="clip0_23_2034">
<rect width="252" height="40" fill="white"/>
</clipPath>
</defs>
</svg>
